<svg width="192" height="192" viewBox="0 0 192 192" fill="none" xmlns="http://www.w3.org/2000/svg">
<path d="M63.5738 190.449C62.606 189.405 62.5434 188.315 63.4019 187.457C64.2886 186.57 65.7925 186.638 66.6886 187.605L67.4123 188.386L74.4597 188.419C78.3358 188.436 81.6003 188.366 81.7143 188.262C81.8283 188.158 83.6665 186.333 85.7994 184.206L89.6774 180.34L89.6674 173.372L89.6574 166.405L88.7165 165.481C87.2287 164.021 88.1291 161.498 90.1378 161.498C91.9878 161.498 92.8988 164.39 91.4161 165.557L90.6247 166.179V173.419V180.659L86.2677 185.008L81.9107 189.356H74.6456H67.3804L66.7354 190.134C65.712 191.369 64.5353 191.486 63.5738 190.449ZM66.0707 189.608C66.4864 189.015 66.4954 188.814 66.1315 188.263C65.1331 186.751 63.0419 187.903 63.7929 189.551C64.2321 190.515 65.4147 190.545 66.0707 189.608ZM90.6107 164.989C91.8774 164.311 91.5795 162.448 90.2045 162.448C88.8039 162.448 88.1284 164.283 89.2818 164.955C89.9743 165.358 89.9233 165.357 90.6107 164.989ZM116.903 187.78C116.467 187.637 115.358 187.287 114.437 187.003C111.234 186.015 108.35 183.9 106.663 181.302C104.558 178.059 104.715 185.126 104.715 93.4349V10.018L105.25 8.88604C111.449 -4.22601 132.205 1.06841 135.256 16.5401L135.606 18.3135L140.579 18.5003C143.315 18.603 145.98 18.8303 146.502 19.0056C154.016 21.5264 155.623 22.3154 159.482 25.3784C170.046 33.7644 174.807 49.8642 170.106 61.3029C169.963 61.6511 169.584 62.577 169.263 63.3606C168.942 64.1441 168.564 64.8678 168.423 64.9687C168.103 65.1973 168.465 66.2097 168.867 66.2097C169.365 66.2097 174.884 70.5023 176.893 72.4531C184.086 79.4374 188.859 87.7732 190.809 96.759C191.036 97.8037 191.306 98.8721 191.409 99.1333C192.251 101.272 192.174 115.031 191.304 117.969C191.149 118.492 190.793 119.845 190.512 120.977C188.387 129.54 182.349 139.448 175.913 144.934C175.059 145.662 173.933 146.624 173.411 147.073C172.889 147.522 171.786 148.351 170.961 148.915C169.138 150.163 169.113 150.222 169.438 152.528C171.589 167.804 157.899 179.775 141.279 177.15L140.171 176.975L139.54 178.338C138.618 180.329 134.223 184.569 131.929 185.681C130.89 186.185 129.817 186.704 129.543 186.835C127.257 187.936 119.205 188.537 116.903 187.78ZM127.463 186.348C132.048 185.016 135.287 182.609 138.007 178.514C140 175.513 139.919 175.553 142.703 176.225C147.78 177.451 155.406 175.815 159.393 172.645C165.921 167.455 168.826 161.303 168.394 153.584C168.302 151.93 168.055 150.078 167.847 149.468C164.59 139.962 158.924 134.979 149.682 133.492C147.95 133.213 146.459 132.911 146.369 132.82C145.58 132.031 150.853 132.261 153.404 133.127C154.234 133.409 155.237 133.64 155.632 133.64C156.403 133.64 160.342 130.579 160.891 129.553C161.071 129.216 161.403 128.751 161.628 128.52C163.349 126.751 165.49 121.545 165.836 118.286C165.948 117.241 166.073 116.101 166.116 115.753C166.158 115.405 166.392 115.12 166.636 115.12C168.174 115.12 166.28 123.108 163.742 127.323C162.57 129.269 158.646 133.64 158.07 133.64C157.022 133.64 157.682 134.718 159.544 136.047C163.8 139.083 166.264 142.256 168.31 147.331C168.919 148.842 169.098 148.826 171.63 147.032C185.202 137.414 193.373 117.972 190.696 101.666C190.192 98.5912 189.412 94.9882 189.122 94.3846C188.996 94.1234 188.621 93.055 188.288 92.0103C185.937 84.6259 179.426 75.4885 172.778 70.2444C170.922 68.7805 164.972 64.9433 164.558 64.9433C164.489 64.9433 163.532 64.5325 162.432 64.0303C160.468 63.1341 158.192 62.3151 155.05 61.3738C154.179 61.113 151.829 60.6517 149.826 60.3486C145.472 59.6896 145.394 59.6704 145.394 59.255C145.394 58.6981 150.771 59.0968 153.625 59.8655C157.24 60.8389 161.438 62.3334 163.972 63.5489C167.486 65.2344 167.282 65.2261 167.939 63.7113C170.341 58.167 171.413 50.2351 170.373 45.7162C169.1 40.1922 167.337 35.9422 164.907 32.5418C159.061 24.3627 149.346 19.3469 139.379 19.3621C135.653 19.3671 135.782 19.2719 135.141 22.5227C134.367 26.452 132.979 29.8348 131.479 31.4447C131.123 31.8267 130.832 32.2549 130.832 32.3962C130.832 32.5375 130.618 32.653 130.357 32.653C129.652 32.653 129.779 31.9619 130.711 30.736C137.332 22.0211 134.555 8.82027 125.134 4.22555L122.759 3.0676L119.061 2.94879C113.061 2.75578 108.448 4.9485 106.52 8.91015L105.981 10.0182V93.9349V177.852L106.897 179.662C109.87 185.537 119.492 188.666 127.463 186.348ZM132.331 159.409C132.207 159.286 132.19 158.66 132.293 158.018C133.137 152.739 129.539 145.337 124.552 142.093C122.042 140.461 118.559 139.021 117.118 139.021C116.825 139.021 116.586 138.794 116.586 138.517C116.586 137.991 119.477 138.134 120.227 138.696C120.401 138.827 120.943 139.03 121.432 139.146C121.92 139.263 122.983 139.771 123.793 140.276C125.862 141.564 126.208 141.052 125.41 137.883C124.624 134.763 126.849 128.324 129.598 125.763C130.87 124.578 130.958 125.555 129.725 127.17C125.451 132.769 125.309 140.314 129.388 145.095C132.583 148.841 135.384 162.462 132.331 159.409ZM138.777 102.061C137.547 97.3444 137.746 93.7238 139.429 90.2419C140.177 88.6929 140.209 88.7809 138.825 88.5831C130.948 87.457 125.991 84.1799 123.179 78.2394C121.029 73.6943 121.075 66.3353 123.276 63.0207C124.206 61.6203 124.493 62.6361 123.711 64.5602C119.405 75.1579 127.785 87.4328 139.316 87.4176L141.121 87.4151L142.545 85.9583C145.17 83.2737 148.544 81.5207 151.449 81.3321C153.455 81.2021 153.273 81.8765 151.181 82.3287C142.783 84.1433 137.201 92.8943 139.534 100.586C140.13 102.551 140.134 103.248 139.549 103.248C139.281 103.248 138.957 102.75 138.777 102.061ZM55.3791 182.374C53.7589 181.1 54.6225 178.318 56.6479 178.287C57.0249 178.282 57.7368 178.704 58.2298 179.226L59.1262 180.176H61.992H64.8578L68.8785 176.112L72.8991 172.049V169.384V166.719L71.9494 165.823C70.3474 164.311 71.0709 162.131 73.1748 162.131C75.3678 162.131 76.3169 164.555 74.6403 165.873L73.8488 166.496V169.325V172.153L69.415 176.639L64.9811 181.125H61.9603H58.9396L58.2425 181.891C57.2276 183.006 56.367 183.151 55.3791 182.374ZM57.9036 180.914C58.0672 180.262 57.9544 179.938 57.4104 179.498L56.7052 178.927L55.9381 179.429C54.6011 180.305 55.0287 181.759 56.6235 181.759C57.5168 181.759 57.7263 181.62 57.9036 180.914ZM74.4359 164.936C74.7796 164.386 74.7838 164.12 74.4584 163.512C73.7667 162.219 71.9493 162.71 71.9493 164.189C71.9493 165.624 73.6815 166.144 74.4359 164.936ZM80.3848 182.249C79.2322 181.18 79.3934 179.27 80.7014 178.498C81.3352 178.124 81.3338 157.851 80.7 157.477C79.0912 156.53 79.2011 154.259 80.8981 153.382L81.8092 152.91L82.8941 153.738C84.3303 154.833 84.3817 156.116 83.0295 157.116L82.0798 157.818V167.92V178.022L83.0295 178.909C84.4164 180.205 84.3136 181.4 82.7216 182.489C81.6838 183.199 81.3768 183.168 80.3848 182.249ZM82.4171 181.747C83.7915 181.012 82.6748 178.652 81.2579 179.297C80.3316 179.719 80.2025 181.239 81.0509 181.733C81.7459 182.138 81.6883 182.137 82.4171 181.747ZM83.0294 155.287C83.0294 154.335 81.9965 153.753 81.13 154.217C80.2281 154.699 80.2778 156.235 81.2092 156.664C82.0995 157.073 83.0294 156.37 83.0294 155.287ZM49.0287 174.636L48.4344 173.844H41.2254H34.0165L29.5773 169.383L25.1381 164.922L25.1155 157.749L25.093 150.576L24.5082 150.088C23.048 148.87 23.1169 146.766 24.6361 146.183C27.1451 145.22 28.944 147.965 26.9962 149.785L26.0465 150.672V157.752V164.831L30.0872 168.863L34.1279 172.895H41.1203H48.1127L49.1121 171.939C50.7643 170.361 53.2414 171.52 52.8187 173.674C52.4537 175.534 50.1437 176.12 49.0287 174.636ZM51.6255 174.414C51.8344 174.205 52.0053 173.735 52.0053 173.369C52.0053 171.946 50.2748 171.411 49.5298 172.604C48.7259 173.892 50.5622 175.477 51.6255 174.414ZM26.8189 148.64C27.0408 147.755 26.3159 146.619 25.5298 146.619C24.7707 146.619 24.0563 148.074 24.4522 148.814C24.992 149.822 26.5508 149.708 26.8189 148.64ZM38.2835 168.2C37.0272 166.812 38.0113 164.664 39.9036 164.664C40.9536 164.664 41.4679 164.076 46.1062 157.573L47.8899 155.072V146.806V138.54L60.3945 126.009L72.8991 113.478L72.9356 107.018C72.98 99.1572 73.001 99.4113 72.2512 98.7693C71.6944 98.2926 70.9997 96.9255 70.9997 96.3066C70.9997 95.8312 72.668 94.3846 73.2162 94.3846C75.1828 94.3846 76.1815 97.2312 74.6403 98.4435L73.8488 99.066V106.31V113.553L61.1767 126.234L48.5045 138.915L48.5334 147.192C48.5492 151.745 48.4466 155.662 48.3052 155.897C48.1639 156.132 46.5806 158.338 44.7869 160.8L41.5255 165.277L41.8761 165.932C42.9244 167.891 39.7927 169.868 38.2835 168.2ZM40.9142 167.534C41.4114 166.604 41.31 165.989 40.5968 165.607C39.239 164.88 37.9763 166.143 38.7029 167.501C39.1459 168.329 40.4781 168.348 40.9142 167.534ZM74.4884 97.5384C74.9295 96.7142 74.6225 95.7382 73.8446 95.4913C72.4517 95.0492 71.3128 96.7871 72.3293 97.8036C72.9226 98.3969 74.1068 98.2514 74.4884 97.5384ZM55.0618 165.351C53.685 163.83 55.0113 161.297 57.0182 161.616L58.0738 161.784L61.4267 158.475L64.7795 155.167H68.9026H73.0257L76.4741 151.718C79.371 148.821 79.8739 148.176 79.6192 147.682C78.6256 145.755 81.9877 143.984 83.4339 145.673C84.7126 147.166 83.5751 149.152 81.4407 149.152H80.1931L76.8489 152.476L73.5047 155.8H69.3182H65.1318L61.8926 159.05L58.6534 162.3V163.591C58.6534 165.701 56.3843 166.812 55.0618 165.351ZM57.5227 164.799C58.4789 163.843 57.9288 162.448 56.5956 162.448C55.1507 162.448 54.6848 163.971 55.8746 164.804C56.7509 165.418 56.9047 165.418 57.5227 164.799ZM82.9224 147.693L83.3628 147.027L82.7747 146.3C81.5872 144.834 79.6373 146.336 80.7207 147.883C81.2941 148.702 82.3146 148.614 82.9224 147.693ZM35.7697 160.172C34.5829 159.307 34.5612 157.526 35.7262 156.598L36.542 155.947L36.5079 149.976L36.4738 144.004L35.6921 143.389C34.1163 142.15 35.0019 139.338 36.9681 139.338C38.9344 139.338 39.82 142.15 38.2441 143.389L37.4624 144.004L37.4283 149.976L37.3942 155.947L38.21 156.598C40.396 158.341 38.0244 161.814 35.7697 160.172ZM38.3397 158.517C38.5735 157.337 36.8129 156.556 35.9235 157.446C34.8757 158.494 36.3514 160.296 37.5866 159.477C37.9429 159.241 38.2818 158.809 38.3397 158.517ZM38.2638 142.025C38.5058 141.06 37.9403 140.288 36.9927 140.288C36.1798 140.288 35.5436 140.843 35.5436 141.554C35.5436 142.966 37.924 143.378 38.2638 142.025ZM88.6157 156.923C87.5097 155.898 87.5474 154.843 88.7277 153.792L89.6774 152.946V139.572V126.198L88.7277 125.302C87.1084 123.773 87.8978 121.61 90.0748 121.61C92.1606 121.61 92.9841 123.938 91.4186 125.409L90.6272 126.152V139.673V153.194L91.4186 153.713C93.0261 154.766 92.0928 157.699 90.1501 157.699C89.7669 157.699 89.0764 157.35 88.6157 156.923ZM91.2593 155.961C91.6583 154.911 91.3879 154.315 90.4298 154.132C89.6017 153.973 88.7277 154.584 88.7277 155.322C88.7277 156.915 90.7063 157.415 91.2593 155.961ZM91.2599 124.459C91.8132 123.425 91.1261 122.501 89.8935 122.62C89.1182 122.695 88.8618 122.886 88.7822 123.448C88.5681 124.958 90.5582 125.77 91.2599 124.459ZM55.0615 148.573C53.081 146.384 56.3138 143.675 58.3364 145.828L59.0799 146.619H66.199H73.318L77.2055 142.734L81.093 138.85L81.1664 135.778L81.2399 132.706L80.3933 131.922C78.5206 130.186 79.763 127.905 82.3959 128.244C83.9876 128.449 84.3695 130.685 83.0291 131.95L82.0794 132.846V135.859V138.872L77.8019 143.141L73.5244 147.41L66.2824 147.511L59.0404 147.611L58.3167 148.381C57.4361 149.319 55.8224 149.413 55.0615 148.573ZM57.5676 148.066C58.4977 147.136 57.9027 145.669 56.5953 145.669C55.7467 145.669 55.1707 146.245 55.1707 147.094C55.1707 148.401 56.6375 148.996 57.5676 148.066ZM82.6492 131.36C83.6658 130.344 82.694 128.668 81.292 129.02C79.9383 129.36 80.3503 131.74 81.7628 131.74C82.0413 131.74 82.4402 131.569 82.6492 131.36ZM17.2939 144.227C16.647 143.58 16.5218 143.216 16.6691 142.407L16.8532 141.396L13.5353 138.085L10.2174 134.774V130.604V126.435L7.11909 123.231L4.02079 120.027H2.74677C0.454509 120.027 -0.8809 117.519 0.666005 116.119C2.15416 114.772 4.20252 115.862 4.20252 118V119.247L7.52653 122.56L10.8505 125.872L10.8519 129.993L10.8532 134.114L14.2138 137.542C17.0872 140.473 17.6845 140.943 18.3345 140.78C19.7909 140.414 20.9684 141.421 20.9762 143.04C20.9854 144.959 18.7476 145.681 17.2939 144.227ZM19.8502 143.906C20.4336 143.322 20.4652 142.998 20.02 142.166C19.6139 141.407 17.9694 141.329 17.6907 142.055C17.0206 143.801 18.6005 145.155 19.8502 143.906ZM3.18949 118.697C4.1119 117.775 2.95301 115.979 1.69336 116.379C0.892833 116.633 0.503721 117.96 1.04021 118.606C1.51067 119.173 2.66468 119.222 3.18949 118.697ZM28.0097 142.106C26.6692 140.491 27.7615 138.392 29.947 138.383L31.2695 138.378L39.633 129.994L47.9966 121.61H52.1421H56.2875L60.4777 117.411L64.6679 113.213V104.394V95.5765L63.6877 94.4602C62.6016 93.2232 62.5823 91.829 63.6401 91.0259C65.8827 89.3234 68.3166 92.455 66.2507 94.3849L65.301 95.2721V104.531V113.789L61.0668 118.016L56.8325 122.243L53.7064 122.289C51.9871 122.315 50.1036 122.302 49.5209 122.261L48.4615 122.187L40.0864 130.525L31.7113 138.863L31.8834 139.76C32.2844 141.85 29.2979 143.658 28.0097 142.106ZM30.8237 141.015C31.0052 140.521 30.9101 140.109 30.4961 139.598L29.9129 138.878L29.0875 139.32C27.6552 140.086 28.2104 142 29.8085 141.805C30.249 141.751 30.6754 141.419 30.8237 141.015ZM66.1988 92.9756C66.3858 91.3329 64.745 90.6404 63.8613 91.9891C63.1129 93.1313 63.7239 94.1392 65.0847 94.0074C65.9382 93.9246 66.1088 93.7667 66.1988 92.9756ZM63.6026 140.265C62.3933 139.313 62.6169 137.592 64.085 136.55C64.5828 136.197 64.668 135.687 64.668 133.062V129.988L68.0128 126.669L71.3576 123.351L71.2008 122.337C70.8702 120.199 73.3049 118.85 74.7983 120.344C76.3234 121.869 74.9997 124.452 72.9075 124.033L72.0419 123.86L68.6715 127.17L65.3011 130.48V133.205V135.93L66.2508 137.012C68.2993 139.345 66.0093 142.158 63.6026 140.265ZM66.1819 139.331C66.865 138.237 65.6998 136.867 64.4832 137.334C63.8041 137.595 63.4109 138.738 63.7668 139.417C64.1707 140.188 65.6802 140.134 66.1819 139.331ZM74.4184 122.813C74.9448 122.286 74.893 121.606 74.2744 120.922C73.6146 120.193 72.9312 120.184 72.3898 120.897C71.5596 121.991 72.0747 123.193 73.3737 123.193C73.7393 123.193 74.2094 123.022 74.4184 122.813ZM30.1786 131.864C29.4267 131.232 29.2111 130.793 29.2085 129.892L29.2053 128.733L25.8846 125.337L22.5639 121.942V115.203V108.464L17.6893 103.597L12.8147 98.7304L11.4552 98.6537C8.3188 98.4768 7.97898 94.3846 11.1007 94.3846C12.488 94.3846 13.4204 95.4564 13.3323 96.9497L13.2638 98.1104L18.3887 103.218L23.5136 108.326V115.047V121.768L26.66 124.934L29.8065 128.1L31.3194 128.258C33.9689 128.535 34.5452 131.291 32.1573 132.265L31.1455 132.678L30.1786 131.864ZM32.1934 131.548C33.0652 131.213 32.854 129.26 31.9207 129.026C30.5171 128.673 29.5556 129.92 30.3528 131.058C30.8434 131.758 31.3168 131.884 32.1934 131.548ZM12.0536 97.487C13.0702 96.4704 12.0985 94.7948 10.6965 95.1467C9.81933 95.3668 9.50541 97.338 10.2966 97.6572C10.9989 97.9406 11.6645 97.876 12.0536 97.487ZM71.6449 131.68C70.8757 130.855 70.8686 130.767 71.4581 129.356L71.9168 128.258H73.4218H74.9268L81.3522 121.761L87.7777 115.264L87.7853 114.242C87.8003 112.103 89.8118 110.905 91.3534 112.118C93.2143 113.582 92.1793 115.912 89.6681 115.912H88.2839L81.8579 122.314L75.4319 128.717V130.021C75.4319 132.248 73.118 133.262 71.6449 131.68ZM74.6061 130.74C74.8297 130.1 74.7796 129.777 74.3971 129.394C73.4205 128.418 71.9491 128.971 71.9491 130.316C71.9491 131.914 74.0768 132.254 74.6061 130.74ZM91.0033 114.724C91.6665 113.95 91.2831 112.617 90.3591 112.484C89.4456 112.352 88.7274 112.944 88.7274 113.829C88.7274 115.206 90.1209 115.754 91.0033 114.724ZM11.2379 117.318C10.7003 116.942 10.5343 116.511 10.5343 115.492V114.159L7.21033 110.846L3.88633 107.534V96.1897C3.88633 82.9882 3.37091 84.7818 8.67523 79.5252L12.8091 75.4286L12.5982 74.4685C12.1718 72.527 14.8162 71.1246 16.2327 72.5411C17.7054 74.0139 16.292 76.6119 14.2607 76.1658L13.3553 75.967L9.09566 80.2365L4.83605 84.5059V95.9045V107.303L8.08092 110.509C10.6776 113.075 11.4637 113.682 12.0161 113.547C13.0669 113.29 14.307 113.902 14.6698 114.856C15.4805 116.989 13.1521 118.659 11.2379 117.318ZM13.4377 116.654C14.4735 115.717 13.9687 114.329 12.5921 114.329C11.2444 114.329 10.7545 115.564 11.6914 116.599C12.3387 117.314 12.6958 117.325 13.4377 116.654ZM15.9161 74.7571C16.5675 73.54 15.2177 72.2149 13.9937 72.8699C13.3977 73.1889 13.1334 74.7181 13.5945 75.1792C14.0661 75.6508 15.5857 75.3745 15.9161 74.7571ZM30.0827 115.162C28.6127 113.898 29.1541 111.942 31.1494 111.309C31.762 111.115 33.6441 112.215 33.6441 112.767C33.6441 112.941 36.6061 113.062 40.8462 113.062L48.0482 113.061L52.0845 109.093L56.1208 105.124V79.9818V54.8394L59.4448 51.5113L62.7688 48.1833V46.9079C62.7688 43.975 66.4997 43.314 67.0662 46.1466C67.3594 47.6128 66.2391 48.7983 64.5602 48.7983H63.2318L60.1511 51.8906L57.0705 54.9828V80.1322V105.282L52.6948 109.657L48.3192 114.033L41.1967 114.001L34.0742 113.969L33.0343 114.94C31.7847 116.107 31.2303 116.149 30.0827 115.162ZM32.5706 114.162L33.0944 113.363L32.5288 112.738C31.4452 111.54 29.3973 112.584 30.133 113.958C30.7755 115.159 31.8582 115.25 32.5706 114.162ZM66.2624 45.9701C65.6529 44.8312 63.9068 45.1673 63.7817 46.4475C63.6427 47.8713 64.8341 48.3993 65.8877 47.3811C66.5212 46.7688 66.5771 46.5582 66.2624 45.9701ZM80.4615 115.339C78.6742 113.464 80.0273 110.415 82.2062 111.407L82.94 111.742L85.359 109.308L87.778 106.875V105.738C87.778 103.379 89.9545 102.122 91.5172 103.578C93.163 105.111 92.0327 107.364 89.6178 107.364H88.4327L86.206 109.613L83.9791 111.862V113.11C83.9791 115.26 81.7391 116.679 80.4615 115.339ZM82.8293 114.292C83.6227 113.16 82.61 111.95 81.1812 112.324C80.6542 112.462 80.4969 112.743 80.4969 113.548C80.4969 115.038 81.9762 115.51 82.8293 114.292ZM91.1032 106.096C91.9513 105.159 91.3188 103.882 90.0068 103.882C88.7887 103.882 88.3397 105.144 89.2141 106.111C89.9258 106.897 90.3819 106.894 91.1032 106.096ZM46.5617 106.525L45.7228 105.686L40.5044 105.753L35.286 105.821L25.4558 96.0049L15.6257 86.1893L14.5402 86.3655C12.2012 86.7451 11.0853 83.6063 13.1194 82.3693L14.1216 81.7598L15.0324 82.2308C16.0563 82.7603 16.5474 83.75 16.3587 84.9035C16.2509 85.5622 17.6493 87.0956 25.6503 95.0922L35.0687 104.506L40.4029 104.539L45.7371 104.573L46.5934 103.752C47.7222 102.671 48.9181 102.688 49.7911 103.798C51.6136 106.115 48.6523 108.616 46.5617 106.525ZM49.4121 105.048C49.3272 104.171 49.183 104.027 48.3066 103.942C46.6052 103.777 46.1035 105.801 47.6965 106.403C48.7715 106.81 49.5251 106.214 49.4121 105.048ZM15.2196 85.1407C15.8168 84.5435 15.6671 83.363 14.9451 82.9766C14.1769 82.5655 12.7504 83.3065 12.7504 84.1167C12.7504 85.2823 14.3957 85.9646 15.2196 85.1407ZM39.3424 98.9086C38.2545 98.5086 37.7595 97.7492 37.7543 96.4724L37.749 95.176L30.1508 87.6159L22.5527 80.0558L22.6252 77.1323L22.6977 74.2088L21.6812 73.1923C20.5215 72.0326 20.4918 71.8944 21.1341 70.6523C21.4287 70.0825 21.9521 69.6681 22.5401 69.5389C25.011 68.9962 26.3907 71.9952 24.3003 73.3649L23.5139 73.8802V76.9329V79.9856L30.8828 87.3496L38.2518 94.7135L39.289 94.506C41.5951 94.0447 42.9984 96.8151 41.2176 98.3135C40.2023 99.1678 40.1193 99.1942 39.3424 98.9086ZM40.9219 97.7127C41.4482 97.0785 41.075 95.7411 40.3034 95.4962C39.5268 95.2498 38.3927 95.8302 38.3927 96.4743C38.3927 97.9579 40.0464 98.7677 40.9219 97.7127ZM23.8512 72.8465C25.0648 72.197 24.423 70.3251 22.9868 70.3251C21.9232 70.3251 21.4372 71.4321 22.074 72.404C22.6317 73.2552 22.9429 73.3326 23.8512 72.8465ZM80.9605 98.9148C80.069 98.7426 79.4408 97.6156 79.493 96.2819L79.5369 95.1618L72.1025 87.7449L64.6682 80.3281V71.6356V62.9431L68.0183 59.6132C70.8766 56.7722 71.3458 56.1646 71.2139 55.4747C70.8383 53.5099 72.8022 52.0097 74.4483 53.0039C75.0823 53.3868 75.2959 53.7993 75.3704 54.7846L75.4675 56.0669L74.4456 56.6883C73.6726 57.1584 73.277 57.2313 72.8215 56.9875C72.3053 56.7113 71.7249 57.1524 68.7603 60.0738L65.3014 63.4823V71.6352V79.7882L72.7919 87.2494L80.2825 94.7107L81.2734 94.5247C82.4317 94.3074 83.9842 95.5719 83.9721 96.7228C83.957 98.1189 82.465 99.2052 80.9605 98.9148ZM82.9224 97.3584L83.3628 96.6916L82.7747 95.9652C81.8555 94.8301 80.4969 95.2914 80.4969 96.7385C80.4969 98.295 82.0429 98.69 82.9224 97.3584ZM74.4694 55.6197C74.9781 55.0067 74.784 54.1921 74.0071 53.6796C73.0484 53.0473 71.775 54.075 72.0684 55.2443C72.3088 56.2018 73.7936 56.4339 74.4694 55.6197ZM89.3609 98.9118C88.4772 98.5928 87.7922 97.4005 87.7851 96.1692L87.7775 94.9464L84.7699 91.9534C80.9214 88.1237 81.2157 89.0614 81.1625 80.4554C81.1053 71.2046 80.8221 72.0427 85.6465 67.1843L89.677 63.1255V56.0958V49.066L88.7273 48.1163C87.1301 46.5192 87.977 44.3661 90.2023 44.3661C92.1636 44.3661 92.9261 46.7484 91.4181 48.165L90.6267 48.9085V56.0414V63.1742L86.353 67.4873L82.0792 71.8004V80.0116V88.2227L85.3241 91.4408L88.569 94.6588L89.7415 94.6177C90.4851 94.5917 91.1509 94.7909 91.5618 95.1628C93.2438 96.6851 91.4863 99.679 89.3609 98.9118ZM90.8219 97.9412C91.4893 97.5015 91.6231 96.3755 91.0733 95.8257C90.3254 95.0778 89.2719 95.3311 88.9171 96.3443C88.4497 97.6789 89.6687 98.7009 90.8219 97.9412ZM91.2329 47.2665C91.807 46.1938 91.3066 45.3159 90.1214 45.3159C89.2479 45.3159 89.0205 45.459 88.8567 46.1114C88.4804 47.6106 90.5185 48.6014 91.2329 47.2665ZM46.6788 89.853C46.2152 89.3596 45.9905 88.7176 45.9905 87.8869V86.6535L42.6665 83.3973L39.3424 80.141V71.7165V63.292L35.4111 59.3234L31.4799 55.3549L27.576 55.4003L23.6721 55.4456L23.1322 56.0968C22.2855 57.118 20.5841 57.2561 19.7592 56.3706C17.6619 54.1194 20.7507 51.3682 22.9294 53.5469L23.8791 54.4966H27.777H31.6749L35.9044 58.7821C38.2306 61.1391 40.1543 63.3116 40.1794 63.6098C40.2044 63.908 40.24 67.689 40.2585 72.0119L40.2921 79.8717L43.537 83.169L46.7819 86.4663L47.7401 86.2881C48.9355 86.0658 50.4225 87.1211 50.4225 88.1919C50.4225 90.2198 48.0234 91.2843 46.6788 89.853ZM49.1403 89.4969C49.3483 89.2462 49.4726 88.6408 49.4165 88.1514C49.2885 87.0353 47.7874 86.7026 47.0816 87.6338C46.1112 88.914 48.1173 90.7295 49.1403 89.4969ZM22.5093 55.1569C22.7185 53.7506 21.2281 53.0286 20.2124 54.0442C19.562 54.6946 19.5848 54.9995 20.3407 55.7553C21.1193 56.534 22.3551 56.1929 22.5093 55.1569ZM72.6582 82.105C70.9973 81.8459 70.7405 79.4526 72.2296 78.1112L72.8991 77.5081V70.3594V63.2107L77.0505 59.0507L81.2019 54.8908L81.1894 50.6573L81.1768 46.4239L84.5261 43.0999L87.8753 39.7758L87.8312 38.628C87.745 36.3773 90.1099 35.047 91.5232 36.5514C93.0007 38.1241 92.0583 40.2507 89.8837 40.2507H88.5414L85.3113 43.5246L82.0812 46.7986V50.8926V54.9867L77.9658 59.1489L73.8503 63.3112V70.4035V77.4959L74.6418 78.2394C76.463 79.9504 75.1569 82.4948 72.6582 82.105ZM74.6064 80.4048C74.8355 79.7492 74.7779 79.4398 74.3463 79.0082C73.141 77.8029 71.2029 79.6493 72.2937 80.9637C72.9142 81.7113 74.2637 81.3851 74.6064 80.4048ZM90.9294 39.0597C91.5159 38.5848 91.5694 38.3728 91.2889 37.6351C90.7362 36.1812 88.7277 36.6187 88.7277 38.193C88.7277 39.5582 89.795 39.9783 90.9294 39.0597ZM29.736 81.4593C28.9251 80.5633 29.09 79.3581 30.1618 78.3464L31.1116 77.45V70.9189C31.1116 65.8008 31.0185 64.3105 30.6813 64.0307C29.9291 63.4064 25.4746 63.6408 24.9918 64.3301C23.907 65.8788 21.6709 65.6585 20.9559 63.9324C20.0747 61.8051 23.2862 60.1086 24.727 61.9403L25.3796 62.7699L28.6413 62.8278L31.903 62.8857L31.9878 70.3716L32.0726 77.8575L32.8584 78.3724C33.8291 79.0085 33.9419 80.7211 33.0652 81.5145C32.2828 82.2225 30.3984 82.1911 29.736 81.4593ZM32.4943 80.7356C32.9697 80.0569 32.8613 79.2218 32.2427 78.7982C31.5806 78.3449 30.8027 78.5664 30.2857 79.3555L29.7618 80.155L30.3275 80.7801C31.062 81.5918 31.9068 81.5744 32.4943 80.7356ZM24.1435 64.156C25.0017 63.1221 23.8573 61.5255 22.5544 61.939C21.8993 62.147 21.5304 63.6659 21.9978 64.2311C22.4453 64.7722 23.6677 64.7294 24.1435 64.156ZM46.6359 73.1145C45.6764 72.0846 45.8001 70.8013 46.9402 69.9584L47.8899 69.2563V61.9477V54.6391L56.3717 46.1786L64.8535 37.7181H69.0223H73.191L76.5261 34.3709C79.3977 31.4888 79.816 30.9393 79.5362 30.4166C78.8938 29.2162 81.0395 26.8291 82.1826 27.4726C84.8794 28.9907 84.1704 32.3906 81.2557 31.9176L80.2731 31.7582L76.8289 35.213L73.3848 38.6679H69.1808H64.9768L56.7499 46.9451L48.523 55.2224V62.0936V68.9649L49.4728 69.9587C50.5815 71.119 50.6805 72.1449 49.777 73.1146C48.9358 74.0176 47.4772 74.0175 46.6359 73.1145ZM48.9646 72.7629C49.9145 72.0683 49.5325 70.5082 48.3804 70.3771C46.832 70.2009 46.1774 71.4617 47.2568 72.5411C48.0009 73.2852 48.2127 73.3127 48.9646 72.7629ZM82.7464 30.5649C83.1958 30.1582 83.2386 29.9145 82.966 29.316C82.3012 27.8568 80.497 28.1865 80.497 29.7672C80.497 31.073 81.7097 31.5031 82.7464 30.5649ZM21.4586 47.9276C20.5721 46.9801 20.5964 45.956 21.5298 44.9202C22.4023 43.952 25.0967 44.4567 25.0967 45.5882C25.0967 45.8351 26.1212 45.9474 28.3415 45.944L31.5864 45.939L39.7382 37.7709L47.8899 29.6028V25.3439V21.0849L57.6482 11.3448L67.4066 1.6046L77.0231 1.64295L86.6397 1.6813L87.2353 0.86372C88.0355 -0.234823 90.0328 -0.299267 90.7675 0.74967C92.4779 3.19157 89.1605 5.70155 87.2913 3.37984L86.6462 2.57866H77.097H67.5477L58.0354 12.1235L48.523 21.6684V25.8131V29.9579L40.0569 38.4283L31.5908 46.8988H28.636H25.6811L24.7314 47.8485C23.5493 49.0306 22.514 49.0555 21.4586 47.9276ZM24.1435 47.3777C24.3676 47.1077 24.4491 46.5677 24.3346 46.1114C24.0466 44.9639 22.0773 44.9366 21.8593 46.0771C21.565 47.6166 23.1814 48.537 24.1435 47.3777ZM89.8098 3.33615C90.4015 3.10906 90.4811 1.60938 89.9307 1.05904C88.8843 0.0127063 87.22 1.38582 87.8523 2.77367C88.1928 3.52099 88.842 3.70753 89.8098 3.33615ZM38.4051 48.1053C36.903 46.4931 37.9637 44.3661 40.2697 44.3661H41.3727L47.9549 37.7973L54.5371 31.2284L54.5374 29.9045C54.5377 28.6689 55.6302 27.2712 56.5956 27.2712C56.7159 27.2712 57.2281 27.5658 57.7338 27.9259C59.6287 29.2752 58.474 32.2672 56.1978 31.906L55.1669 31.7423L48.6001 38.3775L42.0332 45.0126L42.1363 46.1069C42.3354 48.2197 39.7845 49.586 38.4051 48.1053ZM40.9219 47.3777C41.6715 46.4745 41.0508 45.3159 39.8173 45.3159C38.9108 45.3159 38.6868 45.4535 38.5217 46.1114C38.2775 47.0845 38.8473 47.8484 39.8173 47.8484C40.2099 47.8484 40.707 47.6366 40.9219 47.3777ZM57.8741 30.4173C57.9873 30.2343 57.9925 29.7364 57.8856 29.311C57.5884 28.1267 55.5889 28.1817 55.2876 29.3824C54.8853 30.9851 57.0002 31.8313 57.8741 30.4173ZM26.732 40.5529C25.3885 39.7359 25.272 37.7161 26.5212 36.8976L27.3127 36.379V33.3267V30.2744L31.5569 26.0228L35.8011 21.7711L35.7803 20.3982C35.7479 18.2532 37.8729 17.2543 39.3424 18.7238C40.832 20.2134 39.6395 22.5226 37.3806 22.5226H36.1714L32.2169 26.4515C28.7855 29.8605 28.2585 30.5201 28.233 31.4375C28.217 32.0189 28.1595 33.3026 28.1055 34.2901L28.0073 36.0855L28.9263 36.9042C30.3048 38.1325 30.1492 39.9135 28.593 40.7183L27.7342 41.1624L26.732 40.5529ZM28.8829 39.4745C29.3947 38.8578 29.1965 38.0466 28.406 37.5227C27.1708 36.704 25.6951 38.5065 26.7429 39.5543C27.2636 40.075 28.4204 40.0318 28.8829 39.4745ZM39.1506 20.8606C39.6931 19.9942 39.0107 19.1986 37.7251 19.1986C36.8452 19.1986 36.6329 19.3302 36.5481 19.9284C36.3322 21.4517 38.332 22.1681 39.1506 20.8606ZM61.5025 26.7964L58.1898 23.4724H56.8878C54.2992 23.4724 53.4577 20.3043 55.8106 19.4171C57.4676 18.7924 58.6371 19.7438 58.6552 21.7312L58.6668 22.9975L61.9447 26.2424L65.2226 29.4873H69.1359H73.0491L77.1687 25.2927L81.2883 21.0981L81.2231 15.9821L81.1579 10.8661L80.3526 10.0608C78.9025 8.61067 79.7735 6.06088 81.7189 6.06088C83.7445 6.06088 84.6077 8.73229 83.0295 10.1171L82.0798 10.9505L82.0799 16.3408L82.0801 21.7312L77.7652 25.9258L73.4504 30.1204H69.1328H64.8153L61.5025 26.7964ZM57.8398 22.1416C58.2555 21.5482 58.2646 21.3473 57.9006 20.7962C57.0588 19.5214 55.1711 19.9321 55.1711 21.3901C55.1711 22.875 56.971 23.3819 57.8398 22.1416ZM82.8792 9.00377C83.7219 7.85132 82.4586 6.64213 80.9976 7.20276C80.5002 7.39376 80.2929 8.91712 80.7079 9.33214C81.1188 9.74305 82.4903 9.53568 82.8792 9.00377ZM88.4341 29.2863C87.5447 28.1555 87.6076 27.5207 88.7277 26.3215L89.6774 25.3048V19.5598V13.8149L88.7277 12.9185C86.9346 11.226 88.118 8.58763 90.4639 9.04784C92.3222 9.4124 92.9393 11.8999 91.4186 12.8963L90.6272 13.4149V19.4362V25.4575L91.4186 26.191C91.9116 26.6479 92.21 27.27 92.21 27.8408C92.21 29.9804 89.7276 30.9306 88.4341 29.2863ZM90.6107 29.1795C92.0024 28.4347 91.5628 26.6381 89.9889 26.6381C88.7886 26.6381 88.3469 27.9086 89.2141 28.8669C89.8647 29.5858 89.8555 29.5837 90.6107 29.1795ZM91.1527 11.7764C91.689 10.7009 91.1783 9.85978 89.9889 9.85978C88.7809 9.85978 88.3474 11.1308 89.2248 12.1003C89.9415 12.8922 90.6563 12.7721 91.1527 11.7764ZM63.4019 22.8393C61.9861 21.4234 62.9826 19.3575 65.0819 19.3561L66.4094 19.3551L69.3377 16.4141L72.266 13.473V12.1592C72.266 11.1604 72.4347 10.7272 72.9696 10.3526C74.5116 9.27249 76.3814 10.14 76.3814 11.9354C76.3814 13.4994 75.3818 14.4179 73.9351 14.1831L72.8264 14.0032L69.8767 17.006L66.9271 20.0088L67.0918 21.0283C67.4257 23.095 64.8982 24.3355 63.4019 22.8393ZM65.8712 22.4594C66.8878 21.4427 65.9161 19.7672 64.5141 20.1191C63.1604 20.4588 63.5723 22.8393 64.9848 22.8393C65.2634 22.8393 65.6623 22.6683 65.8712 22.4594ZM75.3684 12.9622C76.4036 11.927 74.8672 10.095 73.5535 10.7981C72.331 11.4524 72.9031 13.3421 74.3237 13.3421C74.6893 13.3421 75.1594 13.1711 75.3684 12.9622Z" fill="white"/>
</svg>
