<svg width="30" height="29" viewBox="0 0 30 29" fill="none" xmlns="http://www.w3.org/2000/svg">
<path d="M0.599854 23.5933V26.7997H7.10844C14.3094 26.7997 14.6331 26.7476 15.5788 25.4374C16.0011 24.8521 16.0696 24.45 16.1308 22.2038C16.1961 19.8079 16.1674 14.5893 15.694 13.8905C14.7488 12.4948 14.2865 12.395 8.76289 12.3946L3.84344 12.3941V4.61522L26.9999 4.61998V1.19977L9.73596 1.19971C2.48114 1.20505 1.97167 1.29569 1.06585 2.74479C0.655426 3.40083 0.599854 3.80078 0.599854 6.09168V13.6932L1.44903 14.5935L2.29798 15.4937L7.61185 15.5578L12.9255 15.6217V23.5933H0.599854Z" fill="#458FFF"/>
<path d="M29.5 3C29.5 4.38071 28.3807 5.5 27 5.5C25.6193 5.5 24.5 4.38071 24.5 3C24.5 1.61929 25.6193 0.5 27 0.5C28.3807 0.5 29.5 1.61929 29.5 3Z" fill="#458FFF" stroke="#458FFF"/>
<path d="M5.5 25C5.5 26.3807 4.38071 27.5 3 27.5C1.61929 27.5 0.5 26.3807 0.5 25C0.5 23.6193 1.61929 22.5 3 22.5C4.38071 22.5 5.5 23.6193 5.5 25Z" fill="#458FFF" stroke="#458FFF"/>
<path fill-rule="evenodd" clip-rule="evenodd" d="M26.2889 28.1689L25.4125 26.2497H24.331C22.9715 26.2497 21.8552 25.7266 21.3521 24.8539C21.0155 24.2701 21 23.9507 21 17.6132C21 11.2969 21.0165 10.9552 21.3481 10.3909C22.0509 9.19471 22.3969 9.06944 25.1455 9.0164C27.4435 8.97208 27.6604 8.99598 28.2944 9.36534C28.691 9.59635 29.1268 10.0531 29.3387 10.4598C29.6876 11.13 29.7019 11.4034 29.6963 17.3515C29.693 20.7581 29.6319 23.8341 29.5602 24.1871C29.4885 24.54 29.1933 25.0828 28.9041 25.3932L28.3783 25.9574L28.7356 26.7902C29.3157 28.1422 29.2955 28.1689 27.691 28.1689H26.2889ZM26.381 23.1777C26.624 23.0842 26.6563 22.4298 26.6563 17.6132C26.6563 12.7967 26.624 12.1423 26.381 12.0487C25.9024 11.8647 24.4721 11.9341 24.2546 12.1522C23.9561 12.4514 23.9561 22.775 24.2546 23.0743C24.4721 23.2924 25.9024 23.3618 26.381 23.1777Z" fill="#458FFF"/>
<path fill-rule="evenodd" clip-rule="evenodd" d="M17.0495 26.0689C17.0037 25.9491 16.9865 22.0822 17.0115 17.4761L17.0568 9.10137L19.9285 9V26.287H18.5307C17.573 26.287 17.1066 26.2183 17.0495 26.0689Z" fill="#458FFF"/>
</svg>
